<mxfile host="app.diagrams.net" modified="2022-09-19T02:48:38.258Z" agent="5.0 (Windows NT 10.0; Win64; x64) AppleWebKit/537.36 (KHTML, like Gecko) Chrome/105.0.0.0 Safari/537.36" etag="fU7L9eBSk_OwO4kCCsS_" version="20.2.8" type="github">
  <diagram id="nYd4fcaXU0SXyAVUdsQ8" name="第 1 页">
    <mxGraphModel dx="1422" dy="761" grid="0" gridSize="10" guides="1" tooltips="1" connect="1" arrows="1" fold="1" page="0" pageScale="1" pageWidth="1169" pageHeight="827" background="none" math="1" shadow="0">
      <root>
        <mxCell id="0" />
        <mxCell id="1" parent="0" />
        <mxCell id="Qc_EctJP7L5imq-jVCZe-50" value="" style="rounded=0;whiteSpace=wrap;html=1;" parent="1" vertex="1">
          <mxGeometry x="272" y="315" width="250" height="146" as="geometry" />
        </mxCell>
        <mxCell id="Qc_EctJP7L5imq-jVCZe-1" value="" style="rounded=0;whiteSpace=wrap;html=1;shadow=0;dashed=1;sketch=0;fontFamily=Helvetica;fontSize=21;" parent="1" vertex="1">
          <mxGeometry x="179" y="154" width="335" height="145" as="geometry" />
        </mxCell>
        <mxCell id="Qc_EctJP7L5imq-jVCZe-2" style="edgeStyle=orthogonalEdgeStyle;rounded=0;orthogonalLoop=1;jettySize=auto;html=1;entryX=0;entryY=0.5;entryDx=0;entryDy=0;fontFamily=Helvetica;fontSize=21;fontColor=default;" parent="1" source="Qc_EctJP7L5imq-jVCZe-5" target="Qc_EctJP7L5imq-jVCZe-8" edge="1">
          <mxGeometry relative="1" as="geometry" />
        </mxCell>
        <mxCell id="Qc_EctJP7L5imq-jVCZe-51" style="edgeStyle=orthogonalEdgeStyle;rounded=0;orthogonalLoop=1;jettySize=auto;html=1;entryX=0.25;entryY=1;entryDx=0;entryDy=0;" parent="1" edge="1">
          <mxGeometry relative="1" as="geometry">
            <mxPoint x="142" y="222" as="sourcePoint" />
            <mxPoint x="313" y="368.25" as="targetPoint" />
            <Array as="points">
              <mxPoint x="165" y="222" />
              <mxPoint x="165" y="368" />
            </Array>
          </mxGeometry>
        </mxCell>
        <mxCell id="fpMwiv-Tk3Xv0sklxEHs-6" style="edgeStyle=orthogonalEdgeStyle;rounded=0;orthogonalLoop=1;jettySize=auto;html=1;entryX=0;entryY=0.5;entryDx=0;entryDy=0;" edge="1" parent="1" source="Qc_EctJP7L5imq-jVCZe-5" target="Qc_EctJP7L5imq-jVCZe-34">
          <mxGeometry relative="1" as="geometry">
            <Array as="points">
              <mxPoint x="107" y="80" />
            </Array>
          </mxGeometry>
        </mxCell>
        <mxCell id="Qc_EctJP7L5imq-jVCZe-5" value="&lt;span style=&quot;font-size: 27px;&quot;&gt;&lt;b&gt;$${X}$$&lt;/b&gt;&lt;/span&gt;" style="ellipse;whiteSpace=wrap;html=1;aspect=fixed;shadow=0;sketch=0;fontFamily=Helvetica;fontSize=18;fontColor=default;strokeColor=#6c8ebf;fillColor=#E0E0E0;" parent="1" vertex="1">
          <mxGeometry x="70" y="185.5" width="73" height="73" as="geometry" />
        </mxCell>
        <mxCell id="Qc_EctJP7L5imq-jVCZe-6" value="" style="group" parent="1" vertex="1" connectable="0">
          <mxGeometry x="216" y="183" width="309" height="127" as="geometry" />
        </mxCell>
        <mxCell id="Qc_EctJP7L5imq-jVCZe-7" value="" style="verticalLabelPosition=bottom;verticalAlign=top;html=1;shape=offPageConnector;rounded=0;size=0.5;shadow=0;sketch=0;fontFamily=Helvetica;fontSize=18;strokeColor=#b85450;fillColor=#f8cecc;rotation=-90;" parent="Qc_EctJP7L5imq-jVCZe-6" vertex="1">
          <mxGeometry x="1" width="76" height="76" as="geometry" />
        </mxCell>
        <mxCell id="Qc_EctJP7L5imq-jVCZe-8" value="&lt;b&gt;$$G_{E}$$&lt;/b&gt;" style="text;html=1;strokeColor=none;fillColor=none;align=center;verticalAlign=middle;whiteSpace=wrap;rounded=0;shadow=0;sketch=0;fontFamily=Helvetica;fontSize=27;fontColor=default;" parent="Qc_EctJP7L5imq-jVCZe-6" vertex="1">
          <mxGeometry y="24" width="60" height="30" as="geometry" />
        </mxCell>
        <mxCell id="Qc_EctJP7L5imq-jVCZe-9" style="edgeStyle=orthogonalEdgeStyle;rounded=0;orthogonalLoop=1;jettySize=auto;html=1;entryX=0.5;entryY=1;entryDx=0;entryDy=0;fontFamily=Helvetica;fontSize=21;fontColor=default;" parent="1" source="Qc_EctJP7L5imq-jVCZe-10" target="Qc_EctJP7L5imq-jVCZe-12" edge="1">
          <mxGeometry relative="1" as="geometry" />
        </mxCell>
        <mxCell id="Qc_EctJP7L5imq-jVCZe-10" value="$${Z}$$" style="rounded=1;whiteSpace=wrap;html=1;shadow=0;sketch=0;fontFamily=Helvetica;fontSize=27;fillColor=#e1d5e7;strokeColor=#9673a6;" parent="1" vertex="1">
          <mxGeometry x="307" y="204" width="76" height="36" as="geometry" />
        </mxCell>
        <mxCell id="Qc_EctJP7L5imq-jVCZe-11" value="" style="group;rotation=-180;" parent="1" vertex="1" connectable="0">
          <mxGeometry x="404" y="183" width="117" height="127.5" as="geometry" />
        </mxCell>
        <mxCell id="Qc_EctJP7L5imq-jVCZe-12" value="" style="verticalLabelPosition=bottom;verticalAlign=top;html=1;shape=offPageConnector;rounded=0;size=0.5;shadow=0;sketch=0;fontFamily=Helvetica;fontSize=18;strokeColor=#6c8ebf;fillColor=#dae8fc;rotation=-270;" parent="Qc_EctJP7L5imq-jVCZe-11" vertex="1">
          <mxGeometry width="76" height="76" as="geometry" />
        </mxCell>
        <mxCell id="Qc_EctJP7L5imq-jVCZe-13" value="&lt;b&gt;$$G_{D}$$&lt;/b&gt;" style="text;html=1;strokeColor=none;fillColor=none;align=center;verticalAlign=middle;whiteSpace=wrap;rounded=0;shadow=0;sketch=0;fontFamily=Helvetica;fontSize=27;fontColor=default;rotation=0;" parent="Qc_EctJP7L5imq-jVCZe-11" vertex="1">
          <mxGeometry x="17" y="22" width="60" height="30" as="geometry" />
        </mxCell>
        <mxCell id="Qc_EctJP7L5imq-jVCZe-14" value="&lt;b&gt;&lt;font style=&quot;font-size: 30px&quot;&gt;G&lt;/font&gt;&lt;/b&gt;" style="text;html=1;strokeColor=none;fillColor=none;align=center;verticalAlign=middle;whiteSpace=wrap;rounded=0;shadow=0;dashed=1;sketch=0;fontFamily=Helvetica;fontSize=21;fontColor=default;" parent="Qc_EctJP7L5imq-jVCZe-11" vertex="1">
          <mxGeometry x="57" y="86" width="60" height="30" as="geometry" />
        </mxCell>
        <mxCell id="Qc_EctJP7L5imq-jVCZe-15" style="edgeStyle=orthogonalEdgeStyle;rounded=0;orthogonalLoop=1;jettySize=auto;html=1;fontFamily=Helvetica;fontSize=21;fontColor=default;" parent="1" source="Qc_EctJP7L5imq-jVCZe-18" target="Qc_EctJP7L5imq-jVCZe-21" edge="1">
          <mxGeometry relative="1" as="geometry" />
        </mxCell>
        <mxCell id="Qc_EctJP7L5imq-jVCZe-16" style="edgeStyle=orthogonalEdgeStyle;rounded=0;orthogonalLoop=1;jettySize=auto;html=1;entryX=0.5;entryY=1;entryDx=0;entryDy=0;fontFamily=Helvetica;fontSize=30;fontColor=default;" parent="1" source="Qc_EctJP7L5imq-jVCZe-18" target="Qc_EctJP7L5imq-jVCZe-34" edge="1">
          <mxGeometry relative="1" as="geometry" />
        </mxCell>
        <mxCell id="Qc_EctJP7L5imq-jVCZe-18" value="&lt;span style=&quot;font-size: 27px;&quot;&gt;&lt;b&gt;$$\hat{X}$$&lt;/b&gt;&lt;/span&gt;" style="ellipse;whiteSpace=wrap;html=1;aspect=fixed;shadow=0;sketch=0;fontFamily=Helvetica;fontSize=18;fontColor=default;strokeColor=#6c8ebf;fillColor=#E0E0E0;" parent="1" vertex="1">
          <mxGeometry x="566" y="183" width="73" height="73" as="geometry" />
        </mxCell>
        <mxCell id="Qc_EctJP7L5imq-jVCZe-19" value="" style="group" parent="1" vertex="1" connectable="0">
          <mxGeometry x="689" y="180" width="77" height="76" as="geometry" />
        </mxCell>
        <mxCell id="Qc_EctJP7L5imq-jVCZe-20" value="" style="verticalLabelPosition=bottom;verticalAlign=top;html=1;shape=offPageConnector;rounded=0;size=0.5;shadow=0;sketch=0;fontFamily=Helvetica;fontSize=18;strokeColor=#b85450;fillColor=#f8cecc;rotation=-90;" parent="Qc_EctJP7L5imq-jVCZe-19" vertex="1">
          <mxGeometry x="1" width="76" height="76" as="geometry" />
        </mxCell>
        <mxCell id="Qc_EctJP7L5imq-jVCZe-21" value="&lt;b&gt;$${E}$$&lt;/b&gt;" style="text;html=1;strokeColor=none;fillColor=none;align=center;verticalAlign=middle;whiteSpace=wrap;rounded=0;shadow=0;sketch=0;fontFamily=Helvetica;fontSize=27;fontColor=default;" parent="Qc_EctJP7L5imq-jVCZe-19" vertex="1">
          <mxGeometry y="24" width="60" height="30" as="geometry" />
        </mxCell>
        <mxCell id="Qc_EctJP7L5imq-jVCZe-22" style="edgeStyle=orthogonalEdgeStyle;rounded=0;orthogonalLoop=1;jettySize=auto;html=1;entryX=0;entryY=0.25;entryDx=0;entryDy=0;fontFamily=Helvetica;fontSize=30;fontColor=default;" parent="1" source="Qc_EctJP7L5imq-jVCZe-23" target="Qc_EctJP7L5imq-jVCZe-29" edge="1">
          <mxGeometry relative="1" as="geometry" />
        </mxCell>
        <mxCell id="Qc_EctJP7L5imq-jVCZe-23" value="$$\hat{Z}$$" style="rounded=1;whiteSpace=wrap;html=1;shadow=0;sketch=0;fontFamily=Helvetica;fontSize=27;fillColor=#e1d5e7;strokeColor=#9673a6;" parent="1" vertex="1">
          <mxGeometry x="805" y="200.5" width="83" height="36.5" as="geometry" />
        </mxCell>
        <mxCell id="Qc_EctJP7L5imq-jVCZe-24" style="edgeStyle=orthogonalEdgeStyle;rounded=0;orthogonalLoop=1;jettySize=auto;html=1;fontFamily=Helvetica;fontSize=21;fontColor=default;entryX=0;entryY=0.5;entryDx=0;entryDy=0;" parent="1" source="Qc_EctJP7L5imq-jVCZe-13" target="Qc_EctJP7L5imq-jVCZe-18" edge="1">
          <mxGeometry relative="1" as="geometry">
            <mxPoint x="564" y="218" as="targetPoint" />
          </mxGeometry>
        </mxCell>
        <mxCell id="Qc_EctJP7L5imq-jVCZe-25" style="edgeStyle=orthogonalEdgeStyle;rounded=0;orthogonalLoop=1;jettySize=auto;html=1;entryX=0;entryY=0.5;entryDx=0;entryDy=0;fontFamily=Helvetica;fontSize=21;fontColor=default;" parent="1" source="Qc_EctJP7L5imq-jVCZe-8" target="Qc_EctJP7L5imq-jVCZe-10" edge="1">
          <mxGeometry relative="1" as="geometry" />
        </mxCell>
        <mxCell id="Qc_EctJP7L5imq-jVCZe-26" style="edgeStyle=orthogonalEdgeStyle;rounded=0;orthogonalLoop=1;jettySize=auto;html=1;entryX=0;entryY=0.5;entryDx=0;entryDy=0;fontFamily=Helvetica;fontSize=21;fontColor=default;" parent="1" source="Qc_EctJP7L5imq-jVCZe-20" target="Qc_EctJP7L5imq-jVCZe-23" edge="1">
          <mxGeometry relative="1" as="geometry" />
        </mxCell>
        <mxCell id="Qc_EctJP7L5imq-jVCZe-29" value="$$D_{2}$$" style="rounded=0;whiteSpace=wrap;html=1;shadow=0;sketch=0;fontFamily=Helvetica;fontSize=30;strokeColor=#82b366;fillColor=#d5e8d4;" parent="1" vertex="1">
          <mxGeometry x="866" y="309.25" width="99.49" height="73.5" as="geometry" />
        </mxCell>
        <mxCell id="Qc_EctJP7L5imq-jVCZe-30" style="edgeStyle=orthogonalEdgeStyle;rounded=0;orthogonalLoop=1;jettySize=auto;html=1;entryX=0;entryY=0.5;entryDx=0;entryDy=0;fontFamily=Helvetica;fontSize=30;fontColor=default;" parent="1" source="Qc_EctJP7L5imq-jVCZe-31" target="Qc_EctJP7L5imq-jVCZe-29" edge="1">
          <mxGeometry relative="1" as="geometry" />
        </mxCell>
        <mxCell id="Qc_EctJP7L5imq-jVCZe-31" value="$$Z^{&#39;}$$" style="rounded=1;whiteSpace=wrap;html=1;shadow=0;sketch=0;fontFamily=Helvetica;fontSize=27;fillColor=#e1d5e7;strokeColor=#9673a6;" parent="1" vertex="1">
          <mxGeometry x="707" y="328" width="76" height="36" as="geometry" />
        </mxCell>
        <mxCell id="Qc_EctJP7L5imq-jVCZe-34" value="$$D_{1}$$" style="rounded=0;whiteSpace=wrap;html=1;shadow=0;sketch=0;fontFamily=Helvetica;fontSize=30;strokeColor=#82b366;fillColor=#d5e8d4;" parent="1" vertex="1">
          <mxGeometry x="553" y="43" width="99.49" height="73.5" as="geometry" />
        </mxCell>
        <mxCell id="Qc_EctJP7L5imq-jVCZe-52" style="edgeStyle=orthogonalEdgeStyle;rounded=0;orthogonalLoop=1;jettySize=auto;html=1;entryX=0.75;entryY=1;entryDx=0;entryDy=0;" parent="1" source="Qc_EctJP7L5imq-jVCZe-40" target="Qc_EctJP7L5imq-jVCZe-43" edge="1">
          <mxGeometry relative="1" as="geometry" />
        </mxCell>
        <mxCell id="Qc_EctJP7L5imq-jVCZe-40" value="&lt;span style=&quot;font-size: 27px;&quot;&gt;&lt;b&gt;$${O}$$&lt;/b&gt;&lt;/span&gt;" style="ellipse;whiteSpace=wrap;html=1;aspect=fixed;shadow=0;sketch=0;fontFamily=Helvetica;fontSize=18;fontColor=default;strokeColor=#6c8ebf;fillColor=#E0E0E0;" parent="1" vertex="1">
          <mxGeometry x="65" y="368" width="73" height="73" as="geometry" />
        </mxCell>
        <mxCell id="Qc_EctJP7L5imq-jVCZe-54" style="edgeStyle=orthogonalEdgeStyle;rounded=0;orthogonalLoop=1;jettySize=auto;html=1;" parent="1" source="Qc_EctJP7L5imq-jVCZe-43" target="Qc_EctJP7L5imq-jVCZe-45" edge="1">
          <mxGeometry relative="1" as="geometry" />
        </mxCell>
        <mxCell id="Qc_EctJP7L5imq-jVCZe-43" value="" style="rounded=0;whiteSpace=wrap;html=1;fillColor=#fff2cc;strokeColor=#d6b656;rotation=90;" parent="1" vertex="1">
          <mxGeometry x="284" y="380.25" width="72" height="12" as="geometry" />
        </mxCell>
        <mxCell id="Qc_EctJP7L5imq-jVCZe-55" style="edgeStyle=orthogonalEdgeStyle;rounded=0;orthogonalLoop=1;jettySize=auto;html=1;entryX=0.5;entryY=1;entryDx=0;entryDy=0;" parent="1" source="Qc_EctJP7L5imq-jVCZe-45" target="Qc_EctJP7L5imq-jVCZe-46" edge="1">
          <mxGeometry relative="1" as="geometry" />
        </mxCell>
        <mxCell id="Qc_EctJP7L5imq-jVCZe-45" value="" style="rounded=0;whiteSpace=wrap;html=1;fillColor=#fff2cc;strokeColor=#d6b656;rotation=90;" parent="1" vertex="1">
          <mxGeometry x="319" y="380.25" width="95.5" height="12" as="geometry" />
        </mxCell>
        <mxCell id="Qc_EctJP7L5imq-jVCZe-56" style="edgeStyle=orthogonalEdgeStyle;rounded=0;orthogonalLoop=1;jettySize=auto;html=1;entryX=0.5;entryY=1;entryDx=0;entryDy=0;" parent="1" source="Qc_EctJP7L5imq-jVCZe-46" target="Qc_EctJP7L5imq-jVCZe-47" edge="1">
          <mxGeometry relative="1" as="geometry" />
        </mxCell>
        <mxCell id="Qc_EctJP7L5imq-jVCZe-57" style="edgeStyle=orthogonalEdgeStyle;rounded=0;orthogonalLoop=1;jettySize=auto;html=1;entryX=0;entryY=0.5;entryDx=0;entryDy=0;" parent="1" source="Qc_EctJP7L5imq-jVCZe-46" target="Qc_EctJP7L5imq-jVCZe-31" edge="1">
          <mxGeometry relative="1" as="geometry">
            <Array as="points">
              <mxPoint x="410" y="498" />
              <mxPoint x="561" y="498" />
              <mxPoint x="561" y="346" />
            </Array>
          </mxGeometry>
        </mxCell>
        <mxCell id="Qc_EctJP7L5imq-jVCZe-46" value="" style="rounded=0;whiteSpace=wrap;html=1;fillColor=#fff2cc;strokeColor=#d6b656;rotation=90;" parent="1" vertex="1">
          <mxGeometry x="342" y="380.75" width="135" height="12" as="geometry" />
        </mxCell>
        <mxCell id="Qc_EctJP7L5imq-jVCZe-47" value="" style="rounded=0;whiteSpace=wrap;html=1;fillColor=#fff2cc;strokeColor=#d6b656;rotation=90;" parent="1" vertex="1">
          <mxGeometry x="422.63" y="380.25" width="79.75" height="12" as="geometry" />
        </mxCell>
        <mxCell id="Qc_EctJP7L5imq-jVCZe-60" value="&lt;b&gt;Latent features&lt;/b&gt;" style="text;html=1;strokeColor=none;fillColor=none;align=center;verticalAlign=middle;whiteSpace=wrap;rounded=0;" parent="1" vertex="1">
          <mxGeometry x="446" y="465" width="60" height="30" as="geometry" />
        </mxCell>
        <mxCell id="fpMwiv-Tk3Xv0sklxEHs-7" value="&lt;span style=&quot;font-size: 30px;&quot;&gt;&lt;b&gt;a&lt;/b&gt;&lt;/span&gt;" style="text;html=1;strokeColor=none;fillColor=none;align=center;verticalAlign=middle;whiteSpace=wrap;rounded=0;" vertex="1" parent="1">
          <mxGeometry x="274" y="429" width="60" height="30" as="geometry" />
        </mxCell>
      </root>
    </mxGraphModel>
  </diagram>
</mxfile>
